<?xml version="1.0" encoding="utf-8"?>
<!-- Generator: Adobe Illustrator 19.0.0, SVG Export Plug-In . SVG Version: 6.00 Build 0)  -->
<svg version="1.1" id="Layer_1" xmlns="http://www.w3.org/2000/svg" xmlns:xlink="http://www.w3.org/1999/xlink" x="0px" y="0px"
	 viewBox="0 0 38 24" style="enable-background:new 0 0 38 24;" xml:space="preserve">
<path d="M31.9,0.2c-10.6-2-11.5,11.7-11.5,11.7l0.1,0.1c-0.5,0-1-0.1-1.4-0.1c-0.5,0-1,0-1.4,0.1l0.1-0.1c0,0-0.9-13.7-11.5-11.7
	C-4.3,2.2,0,19.1,8.6,20c1.5,2.3,5.6,4,10.4,4s8.9-1.7,10.4-4C38,19.1,42.3,2.2,31.9,0.2z M21.4,14.9c1.1,0,1.9,0.8,1.9,1.9
	c0,1-0.9,1.9-1.9,1.9c-1.1,0-1.9-0.8-1.9-1.9C19.5,15.8,20.4,14.9,21.4,14.9z M16.6,14.9c1.1,0,1.9,0.8,1.9,1.9c0,1-0.9,1.9-1.9,1.9
	c-1.1,0-1.9-0.8-1.9-1.9C14.7,15.8,15.5,14.9,16.6,14.9z M19,21.7c-4.7,0-8.5-1.5-8.5-3.3c0-0.2,0.1-0.4,0.2-0.6
	c0.8,1.5,4.2,2.7,8.4,2.7s7.6-1.1,8.4-2.7c0.1,0.2,0.2,0.4,0.2,0.6C27.5,20.2,23.7,21.7,19,21.7z"/>
</svg>
